<?xml version="1.0" standalone="no"?>
<!DOCTYPE svg PUBLIC "-//W3C//DTD SVG 20010904//EN"
 "http://www.w3.org/TR/2001/REC-SVG-20010904/DTD/svg10.dtd">
<svg version="1.0" xmlns="http://www.w3.org/2000/svg"
 width="200.000000pt" height="100.000000pt" viewBox="0 0 800.000000 600.000000" 
 preserveAspectRatio="xMidYMid meet" style="background-color:transparent">
 

<g transform="translate(0.000000,600.000000) scale(0.100000,-0.100000)"
fill="#ffffff" stroke="none">
<path d="M2625 3552 l-850 -377 0 -269 0 -268 859 -379 c547 -241 871 -379
892 -379 l32 0 7 180 c8 190 -2 560 -15 560 -4 0 -30 10 -58 23 l-51 22 88 0
c79 0 92 3 129 28 l42 27 -1 63 c0 46 -3 55 -9 36 -37 -124 -201 -161 -289
-65 -18 19 -26 41 -29 80 -8 96 51 156 153 156 81 0 135 -36 161 -107 l14 -38
-3 65 c-2 61 -4 66 -35 87 -81 54 -211 49 -278 -9 -47 -42 -64 -78 -64 -138 0
-65 19 -109 61 -145 19 -15 29 -26 22 -24 -74 26 -531 225 -525 230 4 3 45 22
92 41 47 20 198 84 336 143 l252 106 7 184 c4 101 4 265 0 364 l-7 181 -42 -1
c-31 0 -240 -89 -891 -377z m833 221 l-3 -38 -785 -346 -785 -346 -3 35 c-2
18 -1 36 1 38 6 7 1561 693 1570 694 5 0 7 -17 5 -37z m2 -237 l0 -93 -515
-218 c-284 -120 -518 -222 -520 -225 -2 -4 41 -26 96 -50 l101 -43 -107 -45
-106 -44 523 -222 523 -222 3 -96 3 -96 -788 347 c-777 342 -788 347 -791 376
l-3 30 783 347 c431 190 786 346 791 347 4 1 7 -41 7 -93z m-7 -276 c-4 -3
-166 -73 -358 -154 l-351 -147 -44 19 c-45 19 -45 20 -20 31 14 6 194 83 400
170 l375 158 3 -35 c2 -19 0 -38 -5 -42z m-336 -561 l343 -144 0 -39 c0 -32
-3 -37 -17 -33 -22 6 -776 328 -782 333 -9 8 65 34 89 31 14 -2 179 -68 367
-148z m-434 -280 c425 -188 773 -343 775 -344 2 -2 2 -19 0 -38 l-3 -35 -785
347 -785 346 -3 39 c-3 33 -1 38 13 32 9 -3 364 -160 788 -347z"/>
<path d="M1634 3692 c-37 -88 -45 -80 148 -150 95 -34 177 -62 182 -62 5 0 14
8 21 17 12 16 16 15 68 -4 l55 -22 22 61 c12 33 20 61 18 62 -1 1 -84 32 -183
68 -170 62 -181 65 -189 47 -11 -24 -14 -24 -76 1 l-50 20 -16 -38z m85 -23
c26 -9 31 -16 29 -37 -3 -27 -11 -23 191 -97 8 -3 11 -8 8 -11 -5 -5 -283 91
-296 103 -7 5 18 53 27 53 5 0 23 -5 41 -11z m240 -40 c74 -28 139 -53 143
-55 6 -4 -5 -37 -17 -52 -2 -2 -21 2 -43 9 -37 11 -40 15 -36 38 5 25 2 28
-100 65 -58 21 -106 40 -106 42 0 10 33 0 159 -47z m-66 -25 c42 -16 77 -32
77 -37 0 -5 -7 -7 -14 -4 -8 3 -49 18 -90 33 -42 15 -76 31 -76 36 0 6 6 8 13
5 6 -2 47 -17 90 -33z"/>
<path d="M5329 3031 c-49 -16 -67 -31 -78 -64 -22 -65 20 -116 112 -137 98
-22 137 -40 144 -68 15 -60 -90 -83 -177 -39 -29 14 -53 36 -68 62 l-22 40 2
-60 c3 -59 4 -60 43 -80 49 -24 172 -33 216 -15 37 16 59 46 59 83 0 61 -27
81 -155 116 -93 26 -105 34 -105 72 0 35 24 49 83 49 54 0 105 -31 129 -80
l18 -35 0 57 c0 57 -1 58 -39 77 -44 23 -125 34 -162 22z"/>
<path d="M4833 3015 c-3 -10 2 -30 11 -45 10 -18 13 -31 6 -35 -6 -4 -10 -60
-10 -141 0 -129 1 -134 21 -134 20 0 20 5 20 153 -1 83 0 166 2 182 2 24 -2
31 -21 33 -14 2 -25 -3 -29 -13z"/>
<path d="M5900 2845 c0 -178 1 -185 20 -185 18 0 20 7 20 65 0 78 15 105 75
140 51 30 59 31 85 5 17 -17 20 -33 20 -115 0 -88 1 -95 20 -95 19 0 20 7 20
110 0 106 -1 112 -26 137 -22 22 -32 25 -70 20 -26 -2 -58 -15 -78 -31 -19
-14 -37 -26 -40 -26 -3 0 -6 36 -6 80 0 73 -2 80 -20 80 -19 0 -20 -7 -20
-185z"/>
<path d="M6842 2866 c3 -189 10 -206 79 -206 56 0 69 8 69 43 0 29 -1 29 -18
14 -22 -20 -53 -22 -70 -5 -8 8 -12 59 -12 165 l0 153 -26 0 -25 0 3 -164z"/>
<path d="M3814 2911 c-95 -43 -98 -187 -5 -236 17 -8 53 -15 81 -15 90 0 150
53 150 133 0 107 -116 168 -226 118z m153 -56 c33 -38 31 -98 -3 -130 -21 -19
-38 -25 -73 -25 -49 1 -71 12 -89 47 -26 48 -6 113 42 134 37 16 99 3 123 -26z"/>
<path d="M4105 2918 c-48 -26 -59 -74 -24 -107 12 -11 52 -27 90 -36 76 -19
99 -36 79 -60 -16 -20 -92 -20 -130 0 -15 8 -38 27 -49 41 l-21 27 0 -42 c0
-40 2 -43 43 -61 27 -13 65 -20 105 -20 54 0 67 4 87 25 58 57 17 107 -108
134 -60 13 -78 31 -57 56 26 31 124 7 155 -39 14 -19 15 -19 15 17 0 35 -3 40
-42 57 -47 22 -112 25 -143 8z"/>
<path d="M4426 2905 c-44 -30 -46 -30 -46 -5 0 13 -7 20 -20 20 -19 0 -20 -7
-20 -130 0 -123 1 -130 20 -130 18 0 20 7 20 74 0 65 3 78 25 105 14 16 42 35
61 41 30 10 38 9 55 -6 16 -15 19 -31 19 -116 0 -91 1 -98 20 -98 18 0 20 7
20 71 0 82 18 116 74 143 42 20 51 20 70 0 12 -12 16 -38 16 -115 0 -99 0 -99
25 -99 25 0 25 0 25 94 0 51 -5 107 -10 123 -23 65 -129 70 -179 9 -12 -14
-16 -12 -41 14 -36 38 -82 40 -134 5z"/>
<path d="M4993 2909 c-94 -47 -97 -185 -4 -234 44 -22 138 -20 179 5 26 16 32
26 32 54 l0 34 -34 -34 c-30 -30 -40 -34 -86 -34 -44 0 -56 4 -81 29 -47 48
-38 116 21 146 56 29 130 11 161 -39 l19 -31 0 43 c0 41 -2 44 -42 62 -56 25
-113 25 -165 -1z"/>
<path d="M5651 2913 c-43 -22 -71 -68 -71 -118 0 -86 56 -135 154 -135 84 0
126 25 126 76 l0 35 -34 -35 c-29 -31 -39 -36 -80 -36 -78 0 -115 30 -116 92
-1 104 154 134 213 40 l17 -27 -2 39 c-2 29 -10 44 -30 59 -38 28 -131 34
-177 10z"/>
<path d="M6274 2916 c-51 -22 -74 -61 -74 -122 0 -48 4 -59 34 -91 31 -34 39
-37 99 -41 55 -4 72 -1 100 17 60 37 80 134 40 189 -41 56 -130 78 -199 48z
m125 -41 c57 -29 65 -115 14 -155 -28 -22 -91 -27 -125 -9 -11 6 -26 26 -34
46 -38 89 55 165 145 118z"/>
<path d="M6581 2913 c-62 -31 -90 -119 -58 -183 34 -67 153 -94 225 -50 61 37
79 122 39 181 -43 64 -134 87 -206 52z m151 -50 c11 -11 22 -39 25 -61 5 -36
2 -45 -25 -72 -25 -25 -38 -30 -77 -30 -63 0 -95 31 -95 94 0 38 5 48 32 71
27 23 39 26 76 22 25 -3 53 -13 64 -24z"/>
</g>
</svg>
