<?xml version="1.0" standalone="no"?>
<!DOCTYPE svg PUBLIC "-//W3C//DTD SVG 20010904//EN"
 "http://www.w3.org/TR/2001/REC-SVG-20010904/DTD/svg10.dtd">
<svg version="1.0" xmlns="http://www.w3.org/2000/svg"
 width="200.000000pt" height="100.000000pt" viewBox="0 0 650.000000 219.000000"
 preserveAspectRatio="xMidYMid meet">

<g transform="translate(0.000000,219.000000) scale(0.100000,-0.100000)"
fill="#000066" stroke="none">
<path d="M1035 1741 l-850 -377 0 -268 0 -268 859 -379 c546 -241 871 -379
892 -379 l32 0 7 180 c8 190 -2 560 -15 560 -4 0 -30 10 -58 23 l-51 22 88 0
c79 0 92 3 129 28 l42 27 -1 63 c0 46 -3 55 -9 36 -37 -124 -201 -161 -289
-65 -18 19 -26 41 -29 80 -8 96 51 156 153 156 81 0 135 -36 161 -107 l14 -38
-3 65 c-2 61 -4 66 -35 87 -81 54 -211 49 -279 -10 -44 -39 -63 -82 -63 -142
0 -60 19 -104 61 -140 19 -15 29 -26 22 -24 -74 26 -531 225 -525 230 4 3 45
22 92 41 47 20 198 84 336 143 l252 106 7 184 c4 101 4 265 0 364 l-7 181 -42
-1 c-31 0 -240 -89 -891 -378z m833 222 l-3 -38 -785 -346 -785 -346 -3 34
c-2 19 -1 37 1 39 7 7 1561 693 1570 694 5 0 7 -17 5 -37z m2 -236 l0 -94
-516 -218 c-283 -121 -517 -222 -519 -225 -3 -4 41 -26 96 -50 l101 -43 -93
-39 c-52 -22 -98 -43 -102 -47 -4 -4 225 -107 510 -227 l518 -220 3 -96 3 -96
-788 347 c-778 342 -788 347 -791 376 l-3 30 783 347 c431 190 786 347 791
347 4 1 7 -41 7 -92z m-7 -277 c-4 -4 -166 -73 -358 -154 l-351 -147 -44 19
c-45 19 -45 20 -20 31 14 6 194 83 400 170 l375 158 3 -35 c2 -19 0 -38 -5
-42z m-336 -561 l343 -144 0 -39 c0 -32 -3 -37 -17 -33 -22 6 -777 327 -782
333 -8 8 65 34 89 31 14 -2 179 -68 367 -148z m-434 -280 c425 -188 773 -343
775 -344 2 -2 2 -19 0 -38 l-3 -35 -785 347 -785 346 -3 39 c-3 33 -1 38 13
32 9 -3 364 -160 788 -347z"/>
<path d="M44 1882 c-37 -88 -45 -80 148 -150 95 -34 179 -62 186 -62 6 0 12 7
12 15 0 20 19 19 79 -4 l49 -20 22 60 c12 34 20 62 18 63 -1 1 -84 32 -183 68
-170 62 -181 65 -189 47 -11 -23 -14 -23 -76 0 l-50 19 -16 -36z m85 -23 c26
-9 32 -16 29 -37 -3 -24 3 -28 87 -59 50 -18 96 -36 104 -38 8 -3 11 -8 8 -12
-5 -4 -278 90 -295 103 -2 1 0 13 4 28 7 29 16 31 63 15z m230 -35 c168 -62
164 -60 150 -87 -7 -12 -13 -23 -14 -25 -2 -2 -21 2 -43 9 -37 11 -40 15 -36
38 5 25 2 28 -100 65 -58 21 -106 40 -106 42 0 10 31 1 149 -42z m-56 -30 c42
-16 77 -32 77 -37 0 -5 -7 -7 -14 -4 -8 3 -49 18 -90 33 -42 15 -76 31 -76 36
0 6 6 8 13 5 6 -2 47 -17 90 -33z"/>
<path d="M3745 1221 c-51 -13 -73 -30 -84 -64 -22 -65 20 -116 112 -137 98
-22 137 -40 144 -68 15 -60 -90 -83 -177 -39 -29 14 -53 36 -68 62 l-22 40 2
-60 c3 -59 4 -60 43 -80 49 -24 172 -33 216 -15 37 16 59 46 59 83 0 61 -31
85 -146 113 -91 22 -114 37 -114 74 0 36 23 50 83 50 54 0 105 -31 129 -80
l18 -35 0 57 c0 57 -1 58 -38 77 -45 23 -115 33 -157 22z"/>
<path d="M3243 1205 c-3 -10 2 -30 11 -45 10 -18 13 -31 6 -35 -6 -4 -10 -60
-10 -141 0 -129 1 -134 21 -134 20 0 20 5 20 153 -1 83 0 166 2 182 2 24 -2
31 -21 33 -14 2 -25 -3 -29 -13z"/>
<path d="M4310 1035 c0 -178 1 -185 20 -185 18 0 20 7 20 65 0 78 15 105 75
140 51 30 59 31 85 5 17 -17 20 -33 20 -115 0 -88 1 -95 20 -95 19 0 20 7 20
110 0 106 -1 112 -26 137 -22 22 -32 25 -70 20 -26 -2 -58 -15 -78 -31 -19
-14 -37 -26 -40 -26 -3 0 -6 36 -6 80 0 73 -2 80 -20 80 -19 0 -20 -7 -20
-185z"/>
<path d="M5252 1056 c3 -189 10 -206 79 -206 56 0 69 8 69 43 0 29 -1 29 -18
14 -22 -20 -53 -22 -70 -5 -8 8 -12 59 -12 165 l0 153 -26 0 -25 0 3 -164z"/>
<path d="M2223 1099 c-69 -34 -94 -120 -53 -186 26 -43 68 -63 130 -63 62 0
104 20 130 63 76 125 -68 255 -207 186z m154 -54 c32 -37 31 -98 -2 -130 -19
-20 -34 -25 -72 -25 -51 1 -73 12 -91 47 -26 48 -6 113 42 134 37 16 99 3 123
-26z"/>
<path d="M2515 1108 c-48 -26 -59 -74 -24 -107 12 -11 52 -27 90 -36 76 -19
99 -36 79 -60 -16 -20 -92 -20 -130 0 -15 8 -38 27 -49 41 l-21 27 0 -42 c0
-40 2 -43 43 -61 27 -13 65 -20 105 -20 54 0 67 4 87 25 54 53 18 102 -94 130
-74 18 -93 34 -71 60 26 31 124 7 155 -39 14 -19 15 -19 15 17 0 35 -3 40 -42
57 -47 22 -112 25 -143 8z"/>
<path d="M2855 1108 c-11 -6 -30 -20 -42 -31 l-23 -20 0 26 c0 20 -5 27 -20
27 -19 0 -20 -7 -20 -130 0 -123 1 -130 20 -130 18 0 20 7 20 74 0 65 3 78 25
105 14 16 42 35 61 41 30 10 38 9 55 -6 16 -15 19 -31 19 -116 0 -91 1 -98 20
-98 18 0 20 7 20 71 0 82 18 116 74 143 42 20 51 20 70 0 12 -12 16 -38 16
-115 l0 -99 26 0 26 0 -4 111 c-3 107 -4 112 -31 135 -43 37 -117 27 -156 -20
-12 -14 -16 -12 -41 14 -30 32 -77 40 -115 18z"/>
<path d="M3403 1099 c-94 -47 -97 -185 -4 -234 44 -22 138 -20 179 5 26 16 32
26 32 54 l0 34 -34 -34 c-30 -30 -40 -34 -86 -34 -44 0 -56 4 -81 29 -21 22
-29 39 -29 66 0 93 132 128 202 53 l28 -30 0 36 c0 34 -4 39 -42 56 -56 25
-113 25 -165 -1z"/>
<path d="M4058 1100 c-45 -24 -68 -65 -68 -117 0 -84 57 -133 154 -133 84 0
126 25 126 76 l0 35 -34 -35 c-30 -33 -38 -36 -88 -36 -45 0 -60 5 -82 25 -34
32 -36 92 -3 130 45 53 150 40 190 -23 l17 -27 -2 39 c-4 53 -39 79 -115 83
-44 2 -67 -2 -95 -17z"/>
<path d="M4684 1106 c-51 -22 -74 -61 -74 -122 0 -48 4 -59 34 -91 31 -34 39
-37 99 -41 55 -4 72 -1 100 17 60 37 80 134 40 189 -41 56 -130 78 -199 48z
m125 -41 c57 -29 65 -115 14 -155 -28 -22 -91 -27 -125 -9 -11 6 -26 26 -34
46 -38 89 55 165 145 118z"/>
<path d="M4991 1103 c-43 -22 -71 -67 -71 -118 0 -85 56 -135 150 -135 70 0
118 28 138 82 47 123 -92 232 -217 171z m156 -58 c33 -38 31 -89 -6 -126 -24
-24 -38 -29 -76 -29 -63 0 -95 31 -95 94 0 38 5 48 32 71 27 23 39 26 77 22
33 -4 52 -12 68 -32z"/>
</g>
</svg>
